<svg width="256mm" height="256mm" version="1.1" viewBox="0 0 256 256" xmlns="http://www.w3.org/2000/svg">
  <path transform="scale(.99973 1.0003)" d="m119.15 162.68q0 1.7771-0.1904 3.0464-0.1904 1.2059-0.57119 1.9675-0.31734 0.69813-0.7616 1.0155t-1.0155 0.31733h-45.315q-0.50773 0-0.952-0.31733-0.44426-0.31733-0.82506-1.0155-0.31733-0.7616-0.50773-1.9675-0.1904-1.2693-0.1904-3.0464 0-1.8405 0.12693-3.0464 0.1904-1.2693 0.50773-2.0309 0.3808-0.76159 0.82506-1.0789 0.44426-0.3808 1.0155-0.3808h15.295v-53.439l-13.201 7.2986q-1.4597 0.69813-2.4117 0.88853-0.88853 0.12693-1.4597-0.3808-0.50773-0.57119-0.69813-1.904-0.1904-1.3328-0.1904-3.7445 0-1.5232 0.06347-2.4752 0.06347-1.0155 0.31733-1.7136 0.25386-0.69812 0.69813-1.1424 0.44426-0.44426 1.2059-0.952l17.644-11.424q0.31733-0.25386 0.7616-0.3808 0.50773-0.1904 1.2693-0.25386 0.7616-0.12693 1.9675-0.12693 1.2693-0.06347 3.2368-0.06347 2.4117 0 3.8714 0.12693 1.5232 0.06347 2.2848 0.31733 0.7616 0.1904 1.0155 0.5712 0.25387 0.3808 0.25387 0.952v67.845h13.391q0.5712 0 1.0155 0.3808 0.50773 0.31733 0.82506 1.0789 0.3808 0.7616 0.50773 2.0309 0.1904 1.2059 0.1904 3.0464zm68.29-35.033q0 9.8373-1.5867 17.771-1.5866 7.9333-5.2042 13.518-3.5541 5.585-9.3296 8.568-5.712 2.9829-14.026 2.9829-8.441 0-13.963-2.856-5.5216-2.9194-8.7584-8.3141-3.2368-5.4581-4.5696-13.264-1.2693-7.8698-1.2693-17.771 0-9.7738 1.5867-17.707 1.6501-7.9968 5.2042-13.582 3.6176-5.585 9.3296-8.568 5.7754-2.9829 14.026-2.9829 8.441 0 13.963 2.9194 5.585 2.856 8.8218 8.3141 3.2368 5.3946 4.5061 13.264 1.2693 7.8064 1.2693 17.707zm-16.819 0.82506q0-5.8389-0.31733-10.282-0.31733-4.5061-1.0155-7.8064-0.63467-3.3002-1.6501-5.585-0.95199-2.2848-2.3482-3.6176-1.3963-1.3963-3.1733-1.9675-1.777-0.5712-3.9349-0.5712-3.7445 0-6.2197 1.8405-2.4117 1.777-3.8714 5.3946-1.3963 3.6176-1.9675 9.0122-0.57119 5.3946-0.57119 12.566 0 8.7584 0.69813 14.534 0.69812 5.712 2.1578 9.1392 1.5232 3.3637 3.8714 4.76 2.3483 1.3328 5.6485 1.3328 2.4752 0 4.3792-0.7616 1.904-0.82506 3.3002-2.4117 1.4597-1.5867 2.4117-3.9984t1.5232-5.585q0.63466-3.1733 0.82506-7.1717 0.25387-3.9984 0.25387-8.8218z" stroke="#000" stroke-linecap="square" stroke-linejoin="round" stroke-width="5.4158" aria-label="10"/>
  <ellipse cx="128" cy="127.76" rx="116.17" ry="116.24" fill="none" stroke="#000" stroke-dasharray="94.6109, 47.3055, 23.6527, 47.3055" stroke-linecap="round" stroke-linejoin="round" stroke-width="23.653" style="paint-order:normal"/>
</svg>
