<svg width="256mm" height="256mm" version="1.1" viewBox="0 0 256 256" xmlns="http://www.w3.org/2000/svg">
  <path transform="scale(.99973 1.0003)" d="m120.35 162.97q0 1.7771-0.1904 3.0464-0.1904 1.2059-0.57119 1.9675-0.31733 0.69813-0.7616 1.0155-0.44426 0.31733-1.0155 0.31733h-45.315q-0.50773 0-0.95199-0.31733-0.44426-0.31733-0.82506-1.0155-0.31733-0.7616-0.50773-1.9675-0.1904-1.2693-0.1904-3.0464 0-1.8405 0.12693-3.0464 0.1904-1.2693 0.50773-2.0309 0.3808-0.76159 0.82506-1.0789 0.44426-0.3808 1.0155-0.3808h15.295v-53.439l-13.201 7.2986q-1.4597 0.69813-2.4117 0.88853-0.88853 0.12693-1.4597-0.3808-0.50773-0.5712-0.69813-1.904t-0.1904-3.7445q0-1.5232 0.06347-2.4752 0.06347-1.0155 0.31733-1.7136 0.25386-0.69813 0.69813-1.1424 0.44426-0.44426 1.2059-0.952l17.644-11.424q0.31733-0.25386 0.7616-0.3808 0.50773-0.1904 1.2693-0.25386 0.7616-0.12693 1.9675-0.12693 1.2693-0.06347 3.2368-0.06347 2.4117 0 3.8714 0.12693 1.5232 0.06347 2.2848 0.31733 0.7616 0.1904 1.0155 0.5712 0.25387 0.3808 0.25387 0.952v67.845h13.391q0.5712 0 1.0155 0.3808 0.50773 0.31733 0.82506 1.0789 0.3808 0.7616 0.50773 2.0309 0.1904 1.2059 0.1904 3.0464zm65.878 0q0 1.7771-0.1904 3.0464-0.1904 1.2059-0.57119 1.9675-0.31734 0.69813-0.7616 1.0155t-1.0155 0.31733h-45.315q-0.50773 0-0.95199-0.31733-0.44427-0.31733-0.82506-1.0155-0.31734-0.7616-0.50773-1.9675-0.1904-1.2693-0.1904-3.0464 0-1.8405 0.12693-3.0464 0.1904-1.2693 0.50773-2.0309 0.3808-0.76159 0.82506-1.0789 0.44427-0.3808 1.0155-0.3808h15.295v-53.439l-13.201 7.2986q-1.4597 0.69813-2.4117 0.88853-0.88853 0.12693-1.4597-0.3808-0.50773-0.5712-0.69813-1.904t-0.1904-3.7445q0-1.5232 0.0635-2.4752 0.0635-1.0155 0.31734-1.7136 0.25386-0.69813 0.69813-1.1424 0.44426-0.44426 1.2059-0.952l17.644-11.424q0.31733-0.25386 0.7616-0.3808 0.50773-0.1904 1.2693-0.25386 0.7616-0.12693 1.9675-0.12693 1.2693-0.06347 3.2368-0.06347 2.4117 0 3.8714 0.12693 1.5232 0.06347 2.2848 0.31733 0.7616 0.1904 1.0155 0.5712 0.25387 0.3808 0.25387 0.952v67.845h13.391q0.5712 0 1.0155 0.3808 0.50773 0.31733 0.82506 1.0789 0.3808 0.7616 0.50773 2.0309 0.1904 1.2059 0.1904 3.0464z" stroke="#000" stroke-linecap="square" stroke-linejoin="round" stroke-width="5.4158" aria-label="11"/>
  <ellipse cx="128" cy="127.76" rx="116.17" ry="116.24" fill="none" stroke="#000" stroke-dasharray="94.6109, 47.3055, 23.6527, 47.3055" stroke-linecap="round" stroke-linejoin="round" stroke-width="23.653" style="paint-order:normal"/>
</svg>
