<svg width="256mm" height="256mm" version="1.1" viewBox="0 0 256 256" xmlns="http://www.w3.org/2000/svg">
  <path transform="scale(.99973 1.0003)" d="m119.97 163.41q0 1.777-0.19039 3.0464-0.1904 1.2059-0.5712 1.9675-0.31733 0.69813-0.7616 1.0155-0.44426 0.31733-1.0155 0.31733h-45.315q-0.50773 0-0.952-0.31733t-0.82506-1.0155q-0.31733-0.7616-0.50773-1.9675-0.1904-1.2693-0.1904-3.0464 0-1.8405 0.12693-3.0464 0.1904-1.2693 0.50773-2.0309 0.3808-0.76159 0.82506-1.0789 0.44426-0.3808 1.0155-0.3808h15.295v-53.439l-13.201 7.2986q-1.4597 0.69813-2.4117 0.88853-0.88853 0.12693-1.4597-0.3808-0.50773-0.5712-0.69813-1.904t-0.1904-3.7445q0-1.5232 0.06347-2.4752 0.06347-1.0155 0.31733-1.7136 0.25386-0.69813 0.69813-1.1424 0.44426-0.44426 1.2059-0.952l17.644-11.424q0.31733-0.25387 0.7616-0.3808 0.50773-0.1904 1.2693-0.25387 0.7616-0.12693 1.9675-0.12693 1.2693-0.06347 3.2368-0.06347 2.4117 0 3.8714 0.12693 1.5232 0.06347 2.2848 0.31733 0.7616 0.1904 1.0155 0.5712 0.25387 0.3808 0.25387 0.95199v67.845h13.391q0.5712 0 1.0155 0.3808 0.50773 0.31733 0.82506 1.0789 0.3808 0.7616 0.50774 2.0309 0.19039 1.2059 0.19039 3.0464zm66.64-0.44427q0 1.8405-0.1904 3.1733-0.12693 1.2693-0.44426 2.0944-0.31734 0.82506-0.82507 1.2059-0.50773 0.31733-1.1424 0.31733h-47.219q-1.3962 0-2.4117-0.25387-1.0155-0.25386-1.6501-0.95199-0.63466-0.7616-0.95199-2.1579-0.25387-1.3962-0.25387-3.6176 0-2.0944 0.1904-3.5541 0.1904-1.5232 0.69813-2.6656 0.50773-1.2059 1.2693-2.2848 0.82506-1.1424 2.0944-2.4752l14.216-15.232q4.2522-4.4426 6.8544-8.0602 2.6021-3.681 4.0618-6.664 1.4597-3.0464 1.9675-5.585 0.5712-2.5386 0.5712-4.8234 0-2.0944-0.69813-3.9349-0.63467-1.904-1.9675-3.3002-1.2693-1.3963-3.2368-2.1578-1.9675-0.82507-4.633-0.82507-3.7445 0-6.664 0.952-2.856 0.95199-5.0773 2.1578-2.1578 1.1424-3.6176 2.1579-1.4597 0.95199-2.2848 0.95199-0.57119 0-1.0155-0.3808-0.3808-0.38079-0.63466-1.2693-0.25387-0.88853-0.44426-2.3483-0.12694-1.5232-0.12694-3.681 0-1.4597 0.0635-2.4117 0.12693-1.0155 0.31733-1.7136 0.1904-0.7616 0.50773-1.2693 0.31733-0.5712 1.0789-1.3328 0.82506-0.7616 2.9194-1.904 2.1578-1.2059 5.2677-2.2848 3.1098-1.1424 6.8544-1.904 3.7445-0.7616 7.8064-0.7616 6.4101 0 11.17 1.6501 4.8234 1.5867 7.9968 4.5061 3.1733 2.856 4.6965 6.8544 1.5867 3.9349 1.5867 8.5045 0 3.9984-0.7616 7.8698-0.76159 3.8714-3.1733 8.3776-2.4117 4.4426-6.7909 9.9008-4.3792 5.3946-11.614 12.566l-9.5834 9.8373h32.368q0.63467 0 1.1424 0.38079 0.5712 0.3808 0.95199 1.2059 0.3808 0.7616 0.5712 2.0944 0.1904 1.2693 0.1904 3.0464z" stroke="#000" stroke-linecap="square" stroke-linejoin="round" stroke-width="5.4158" aria-label="12"/>
  <ellipse cx="128" cy="127.76" rx="116.17" ry="116.24" fill="none" stroke="#000" stroke-dasharray="94.6109, 47.3055, 23.6527, 47.3055" stroke-linecap="round" stroke-linejoin="round" stroke-width="23.653" style="paint-order:normal"/>
</svg>
