<svg width="256mm" height="256mm" version="1.1" viewBox="0 0 256 256" xmlns="http://www.w3.org/2000/svg">
  <path transform="scale(.99973 1.0003)" d="m120.35 162.24q0 1.7771-0.1904 3.0464-0.1904 1.2059-0.57119 1.9675-0.31733 0.69813-0.7616 1.0155-0.44426 0.31733-1.0155 0.31733h-45.315q-0.50773 0-0.95199-0.31733-0.44426-0.31733-0.82506-1.0155-0.31733-0.7616-0.50773-1.9675-0.1904-1.2693-0.1904-3.0464 0-1.8405 0.12693-3.0464 0.1904-1.2693 0.50773-2.0309 0.3808-0.7616 0.82506-1.0789 0.44426-0.3808 1.0155-0.3808h15.295v-53.439l-13.201 7.2986q-1.4597 0.69813-2.4117 0.88853-0.88853 0.12693-1.4597-0.3808-0.50773-0.57119-0.69813-1.904-0.1904-1.3328-0.1904-3.7445 0-1.5232 0.06347-2.4752 0.06347-1.0155 0.31733-1.7136 0.25386-0.69812 0.69813-1.1424 0.44426-0.44426 1.2059-0.952l17.644-11.424q0.31733-0.25387 0.7616-0.3808 0.50773-0.1904 1.2693-0.25387 0.7616-0.12693 1.9675-0.12693 1.2693-0.06347 3.2368-0.06347 2.4117 0 3.8714 0.12693 1.5232 0.06347 2.2848 0.31733 0.7616 0.1904 1.0155 0.5712 0.25387 0.3808 0.25387 0.952v67.845h13.391q0.5712 0 1.0155 0.3808 0.50773 0.31733 0.82506 1.0789 0.3808 0.76159 0.50773 2.0309 0.1904 1.2059 0.1904 3.0464zm65.878-20.309q0 6.664-2.3482 11.932-2.2848 5.2042-6.537 8.8218-4.1888 3.5541-10.155 5.4581-5.9024 1.904-13.138 1.904-3.808 0-7.2352-0.50773-3.4272-0.44427-6.1562-1.1424-2.729-0.76159-4.5061-1.4597-1.7136-0.7616-2.2848-1.2059-0.50774-0.50773-0.7616-1.0789-0.25387-0.5712-0.44426-1.3328-0.12694-0.82506-0.1904-2.0309-0.0635-1.2059-0.0635-2.856 0-1.7771 0.12693-2.9829 0.12694-1.2693 0.3808-2.0309 0.31733-0.76159 0.69813-1.0789 0.3808-0.31734 0.88853-0.31734 0.63466 0 1.904 0.7616 1.3328 0.69813 3.4272 1.5867 2.1578 0.88853 5.2042 1.6501 3.0464 0.69813 7.2986 0.69813 3.681 0 6.664-0.76159 3.0464-0.7616 5.1408-2.4117 2.0944-1.7136 3.2368-4.2522 1.1424-2.5386 1.1424-6.0928 0-3.0464-0.95199-5.3946-0.952-2.4117-2.9829-4.0618-2.0309-1.6501-5.2677-2.4752-3.2368-0.82506-7.8698-0.82506-3.681 0-6.7274 0.3808-2.9829 0.38079-5.6485 0.38079-1.8405 0-2.6656-0.88852-0.7616-0.952-0.7616-3.4272v-35.668q0-2.5387 0.952-3.6176 1.0155-1.1424 3.1733-1.1424h38.905q0.5712 0 1.0789 0.3808t0.82506 1.2059q0.3808 0.82506 0.50773 2.2213 0.1904 1.3328 0.1904 3.2368 0 3.808-0.69813 5.5216-0.63466 1.7136-1.904 1.7136h-29.194v17.58q2.2213-0.25386 4.3792-0.31733 2.2213-0.0635 4.633-0.0635 6.664 0 11.805 1.5866 5.2042 1.5232 8.6949 4.5696 3.5541 2.9829 5.3946 7.489 1.8405 4.4426 1.8405 10.345z" stroke="#000" stroke-linecap="square" stroke-linejoin="round" stroke-width="5.4158" aria-label="15"/>
  <ellipse cx="128" cy="127.76" rx="116.17" ry="116.24" fill="none" stroke="#000" stroke-dasharray="94.6109, 47.3055, 23.6527, 47.3055" stroke-linecap="round" stroke-linejoin="round" stroke-width="23.653" style="paint-order:normal"/>
</svg>
