<?xml version="1.0" encoding="UTF-8" standalone="no"?>
<!-- Created with Inkscape (http://www.inkscape.org/) -->

<svg
   width="255.99995mm"
   height="253.20006mm"
   viewBox="0 0 255.99995 253.20006"
   version="1.1"
   id="svg1"
   xmlns="http://www.w3.org/2000/svg"
   xmlns:svg="http://www.w3.org/2000/svg">
  <defs
     id="defs1" />
  <path
     d="m 122.60678,161.61101 q 0,1.84102 -0.19035,3.17417 -0.1269,1.26967 -0.44415,2.09495 -0.31725,0.82528 -0.82484,1.20618 -0.5076,0.31741 -1.14209,0.31741 H 72.79898 q -1.395888,0 -2.411078,-0.25394 -1.015191,-0.25392 -1.649685,-0.95224 -0.634494,-0.7618 -0.951742,-2.15843 -0.253797,-1.39662 -0.253797,-3.61855 0,-2.09493 0.190348,-3.55505 0.190348,-1.5236 0.697944,-2.66629 0.507595,-1.20618 1.268988,-2.2854 0.824843,-1.14269 2.093831,-2.47585 l 14.21267,-15.23596 q 4.251111,-4.44383 6.852537,-8.06237 2.601427,-3.68203 4.060763,-6.66574 1.459337,-3.04719 1.966933,-5.58652 0.571044,-2.53933 0.571044,-4.82472 0,-2.09495 -0.697943,-3.93596 -0.634495,-1.9045 -1.966933,-3.30113 -1.268988,-1.39663 -3.23592,-2.15842 -1.966932,-0.825294 -4.631807,-0.825294 -3.743517,0 -6.66219,0.952254 -2.855224,0.95224 -5.075954,2.15842 -2.157279,1.14271 -3.616616,2.15844 -1.459337,0.95224 -2.28418,0.95224 -0.571044,0 -1.01519,-0.3809 -0.380696,-0.38089 -0.634495,-1.26966 -0.253797,-0.88876 -0.444146,-2.34888 -0.126898,-1.5236 -0.126898,-3.682023 0,-1.460114 0.06345,-2.412362 0.1269,-1.015732 0.317247,-1.714048 0.190348,-0.761797 0.507596,-1.269663 0.317247,-0.57135 1.07864,-1.333147 0.824842,-0.761799 2.918674,-1.904497 2.157279,-1.20618 5.266301,-2.285395 3.109022,-1.142697 6.852538,-1.904496 3.743515,-0.761799 7.804278,-0.761799 6.408392,0 11.167102,1.650563 4.82215,1.587081 7.99462,4.507308 3.17247,2.856744 4.69526,6.856187 1.58624,3.935952 1.58624,8.506752 0,3.99944 -0.7614,7.87191 -0.76139,3.87247 -3.17247,8.37978 -2.41108,4.44383 -6.78909,9.90339 -4.37801,5.39607 -11.611241,12.56968 l -9.580862,9.83989 h 32.359203 q 0.6345,0 1.14209,0.3809 0.57104,0.3809 0.95174,1.20618 0.3807,0.7618 0.57105,2.09494 0.19035,1.26967 0.19035,3.04719 z m 65.86049,0 q 0,1.84102 -0.19034,3.17417 -0.12691,1.26967 -0.44416,2.09495 -0.31724,0.82528 -0.82484,1.20618 -0.50759,0.31741 -1.14208,0.31741 h -47.20638 q -1.39588,0 -2.41107,-0.25394 -1.01519,-0.25392 -1.64969,-0.95224 -0.63449,-0.7618 -0.95174,-2.15843 -0.25379,-1.39662 -0.25379,-3.61855 0,-2.09493 0.19034,-3.55505 0.19035,-1.5236 0.69795,-2.66629 0.50759,-1.20618 1.26898,-2.2854 0.82485,-1.14269 2.09383,-2.47585 l 14.21268,-15.23596 q 4.25111,-4.44383 6.85254,-8.06237 2.60142,-3.68203 4.06076,-6.66574 1.45934,-3.04719 1.96693,-5.58652 0.57104,-2.53933 0.57104,-4.82472 0,-2.09495 -0.69794,-3.93596 -0.6345,-1.9045 -1.96693,-3.30113 -1.26899,-1.39663 -3.23592,-2.15842 -1.96694,-0.825294 -4.63181,-0.825294 -3.74352,0 -6.66219,0.952254 -2.85522,0.95224 -5.07595,2.15842 -2.15729,1.14271 -3.61662,2.15844 -1.45934,0.95224 -2.28418,0.95224 -0.57105,0 -1.01519,-0.3809 -0.3807,-0.38089 -0.63449,-1.26966 -0.2538,-0.88876 -0.44415,-2.34888 -0.1269,-1.5236 -0.1269,-3.682023 0,-1.460114 0.0635,-2.412362 0.1269,-1.015732 0.31725,-1.714048 0.19035,-0.761797 0.50759,-1.269663 0.31725,-0.57135 1.07865,-1.333147 0.82484,-0.761799 2.91867,-1.904497 2.15728,-1.20618 5.2663,-2.285395 3.10902,-1.142697 6.85253,-1.904496 3.74352,-0.761799 7.80429,-0.761799 6.40839,0 11.16709,1.650563 4.82216,1.587081 7.99463,4.507308 3.17247,2.856744 4.69526,6.856187 1.58623,3.935952 1.58623,8.506752 0,3.99944 -0.76139,7.87191 -0.76139,3.87247 -3.17247,8.37978 -2.41108,4.44383 -6.78909,9.90339 -4.37801,5.39607 -11.61124,12.56968 l -9.58087,9.83989 h 32.3592 q 0.63451,0 1.1421,0.3809 0.57104,0.3809 0.95174,1.20618 0.3807,0.7618 0.57105,2.09494 0.19034,1.26967 0.19034,3.04719 z"
     id="text15"
     style="font-weight:bold;font-size:129.979px;font-family:Calibri;-inkscape-font-specification:'Calibri Bold';stroke:#000000;stroke-width:5.41579;stroke-linecap:square;stroke-linejoin:round"
     aria-label="22" />
  <ellipse
     style="fill:none;stroke:#000000;stroke-width:23.6527;stroke-linecap:round;stroke-linejoin:round;stroke-miterlimit:4;stroke-dasharray:94.6109, 47.3055, 23.6527, 47.3055;stroke-dashoffset:0;paint-order:normal"
     id="path15"
     cx="128.0002"
     cy="126.36401"
     rx="116.1734"
     ry="116.23527" />
</svg>
