<svg width="256mm" height="256mm" version="1.1" viewBox="0 0 256 256" xmlns="http://www.w3.org/2000/svg">
  <path transform="scale(.99973 1.0003)" d="m155.48 144.97q0 6.1562-2.3482 10.916-2.3483 4.76-6.537 7.9968-4.1888 3.2368-10.028 4.9504-5.8389 1.6501-12.757 1.6501-4.1888 0-7.8698-0.63467-3.681-0.57119-6.537-1.4597-2.7925-0.88853-4.633-1.8405-1.8405-0.95199-2.4117-1.4597-0.5712-0.50773-0.88853-1.1424-0.25387-0.63467-0.50773-1.4597-0.1904-0.88853-0.31733-2.1578-0.0635-1.3328-0.0635-3.1733 0-3.0464 0.50773-4.1888 0.50773-1.2059 1.5232-1.2059 0.63467 0 2.1579 0.88853 1.5866 0.82506 3.9984 1.8405 2.4117 0.95199 5.6485 1.8405 3.2368 0.82506 7.3621 0.82506 3.4906 0 6.1562-0.82506 2.6656-0.82506 4.5061-2.2848 1.904-1.5232 2.7925-3.6176 0.95199-2.1578 0.95199-4.76 0-2.856-1.1424-5.1408-1.0789-2.2848-3.3002-3.8714-2.1579-1.6501-5.5216-2.5386-3.3002-0.88853-7.8064-0.88853h-7.1082q-0.82506 0-1.3963-0.1904-0.5712-0.25386-0.952-0.95199-0.38079-0.69813-0.57119-1.904-0.12694-1.2693-0.12694-3.2368 0-1.8405 0.12694-2.9829 0.1904-1.2059 0.50773-1.8405 0.3808-0.63467 0.88853-0.88853 0.57119-0.25387 1.3328-0.25387h7.1717q3.681 0 6.537-0.82506 2.856-0.88853 4.76-2.4752 1.9675-1.5867 2.9829-3.808 1.0155-2.2848 1.0155-5.0138 0-2.0944-0.69813-3.9349-0.69813-1.904-2.0944-3.2368-1.3328-1.3963-3.4906-2.1579-2.1579-0.82506-5.0773-0.82506-3.3002 0-6.2197 1.0155-2.9194 0.95199-5.2677 2.1578-2.2848 1.1424-3.9349 2.1579-1.5867 1.0155-2.3482 1.0155-0.50773 0-0.88853-0.1904-0.3808-0.25386-0.63467-0.88853-0.25386-0.63466-0.38079-1.8405-0.12694-1.2059-0.12694-3.1098 0-1.5867 0.0635-2.6021 0.0635-1.0789 0.25387-1.7771 0.19039-0.69813 0.44426-1.2059 0.31733-0.50773 0.95199-1.0789 0.63467-0.63466 2.6021-1.8405 1.9675-1.2059 4.9504-2.3483 2.9829-1.1424 6.8544-1.904 3.9349-0.82506 8.5045-0.82506 5.9658 0 10.535 1.3963 4.633 1.3963 7.7429 4.0618 3.1733 2.6021 4.76 6.4736 1.6501 3.808 1.6501 8.6314 0 3.7445-0.952 6.9813-0.95199 3.2368-2.7925 5.7754-1.8405 2.5387-4.633 4.3157-2.729 1.7771-6.3466 2.6656v0.1904q4.3157 0.50773 7.7429 2.2213 3.4272 1.6501 5.7754 4.1888 2.4117 2.5387 3.681 5.7754 1.2693 3.1733 1.2693 6.8544z" stroke="#000" stroke-linecap="square" stroke-linejoin="round" stroke-width="5.4158" aria-label="3"/>
  <ellipse cx="128" cy="127.76" rx="116.17" ry="116.24" fill="none" stroke="#000" stroke-dasharray="94.6109, 47.3055, 23.6527, 47.3055" stroke-linecap="round" stroke-linejoin="round" stroke-width="23.653" style="paint-order:normal"/>
</svg>
