<svg width="256mm" height="256mm" version="1.1" viewBox="0 0 256 256" xmlns="http://www.w3.org/2000/svg">
  <path transform="scale(.99973 1.0003)" d="m156.34 141.58q0 6.2197-1.904 11.551-1.904 5.2677-5.585 9.1392-3.681 3.808-9.0757 6.0293-5.3946 2.1579-12.439 2.1579-5.712 0-9.9642-1.3328-4.2522-1.2693-7.3621-3.681-3.1098-2.4752-5.0773-5.9658-1.9674-3.4906-3.1733-7.8698-1.1424-4.3792-1.5867-9.5199-0.44426-5.1408-0.44426-10.916 0-4.8234 0.44426-10.091 0.50773-5.2677 1.8405-10.345 1.3963-5.0773 3.8714-9.6469 2.4752-4.633 6.3466-8.0602 3.9349-3.4906 9.4565-5.5216 5.585-2.0309 13.201-2.0309 2.4117 0 4.8234 0.31733 2.4752 0.25387 4.5696 0.69813t3.5541 1.0155q1.4597 0.5712 1.904 1.0155 0.50773 0.3808 0.7616 0.88853 0.25386 0.50773 0.38079 1.1424 0.1904 0.5712 0.25387 1.4597 0.0635 0.88853 0.0635 2.1579 0 1.9675-0.12693 3.3002-0.0635 1.2693-0.31733 2.0309-0.25386 0.69813-0.69813 1.0155-0.44426 0.31733-1.0789 0.31733-0.76159 0-1.9674-0.38079-1.2059-0.44427-2.9194-0.952-1.7136-0.50773-4.0618-0.88853-2.2848-0.3808-5.3312-0.3808-5.1408 0-8.6949 1.904-3.5541 1.904-5.7754 5.2042-2.2213 3.2368-3.2368 7.5525t-1.0789 9.1392q1.3962-0.88853 3.1733-1.777 1.8405-0.88853 3.9349-1.5232 2.1579-0.63466 4.633-1.0155 2.4752-0.44426 5.2677-0.44426 6.2197 0 10.662 1.7136t7.2352 4.8869q2.856 3.1733 4.1888 7.6794 1.3328 4.5061 1.3328 10.028zm-16.374 1.5866q0-3.2368-0.5712-5.6485-0.5712-2.4752-1.8405-4.1253-1.2693-1.7136-3.3637-2.5386-2.0944-0.88853-5.0773-0.88853-1.7771 0-3.4906 0.31733t-3.3637 0.88853q-1.6501 0.5712-3.1733 1.3963-1.5232 0.7616-2.856 1.6501 0 6.7909 0.76159 11.36 0.7616 4.5061 2.2213 7.1717 1.5232 2.6656 3.7445 3.808 2.2848 1.0789 5.2677 1.0789 2.9194 0 5.0773-1.0789 2.2213-1.0789 3.681-3.0464 1.4597-1.9674 2.2213-4.5696 0.7616-2.6656 0.7616-5.7754z" stroke="#000" stroke-linecap="square" stroke-linejoin="round" stroke-width="5.4158" aria-label="6"/>
  <ellipse cx="128" cy="127.76" rx="116.17" ry="116.24" fill="none" stroke="#000" stroke-dasharray="94.6109, 47.3055, 23.6527, 47.3055" stroke-linecap="round" stroke-linejoin="round" stroke-width="23.653" style="paint-order:normal"/>
</svg>
