<svg width="256mm" height="256mm" version="1.1" viewBox="0 0 256 256" xmlns="http://www.w3.org/2000/svg">
  <path transform="scale(.99973 1.0003)" d="m156.37 124.22q0 5.0138-0.50773 10.408-0.50773 5.3312-1.9674 10.472-1.3963 5.1408-3.9349 9.7738-2.4752 4.633-6.4736 8.1237-3.9349 3.4272-9.6469 5.4581-5.6485 2.0309-13.391 2.0309-2.729 0-5.4581-0.3808-2.6656-0.3808-4.8869-0.952-2.2213-0.57119-3.808-1.2059-1.5232-0.63466-2.2213-1.2693-0.69813-0.69813-1.0155-1.9675-0.31733-1.2693-0.31733-3.5541 0-2.0944 0.0635-3.3637 0.12693-1.2693 0.38079-1.9674 0.31734-0.69813 0.69813-0.88853 0.44427-0.25387 1.0155-0.25387 0.76159 0 2.1578 0.44427 1.3963 0.44426 3.3637 1.0155 2.0309 0.5712 4.5696 1.0155t5.6485 0.44426q5.3312 0 9.0122-1.904 3.681-1.904 5.9658-5.1408 2.2848-3.2368 3.3637-7.489 1.0789-4.2522 1.2059-8.9488-2.9194 1.8405-7.0448 3.2368-4.1253 1.3328-9.4565 1.3328-6.537 0-11.107-1.7136-4.5696-1.7136-7.4256-4.9504t-4.1888-7.8698q-1.2693-4.633-1.2693-10.472 0-6.1562 1.8405-11.297 1.8405-5.2042 5.4581-8.9487 3.6176-3.808 9.0122-5.9024t12.503-2.0944q5.712 0 9.9642 1.3328 4.3157 1.3328 7.3621 3.808 3.1098 2.4752 5.1408 6.0293 2.0944 3.4906 3.2368 7.8064 1.2059 4.3157 1.6501 9.3295 0.50773 5.0138 0.50773 10.472zm-16.565-2.2848q0-6.7909-0.7616-11.36-0.7616-4.5696-2.2848-7.2986t-3.808-3.8714q-2.2848-1.1424-5.3312-1.1424-2.9829 0-5.1408 1.0789-2.1578 1.0155-3.6176 2.9194-1.3963 1.904-2.0944 4.5061-0.69813 2.6021-0.69813 5.712 0 3.3637 0.57119 5.9658 0.63467 2.5386 1.904 4.2522 1.3328 1.6501 3.4272 2.4752t5.0773 0.82506q3.681 0 6.9178-1.0789 3.3002-1.1424 5.8389-2.9829z" stroke="#000" stroke-linecap="square" stroke-linejoin="round" stroke-width="5.4158" aria-label="9"/>
  <ellipse cx="128" cy="127.76" rx="116.17" ry="116.24" fill="none" stroke="#000" stroke-dasharray="94.6109, 47.3055, 23.6527, 47.3055" stroke-linecap="round" stroke-linejoin="round" stroke-width="23.653" style="paint-order:normal"/>
</svg>
