<svg width="256mm" height="256mm" version="1.1" viewBox="0 0 256 256" xmlns="http://www.w3.org/2000/svg">
  <path transform="scale(.99973 1.0003)" d="m127.65 166.14q0 0.69813-0.25386 1.2059-0.25387 0.44426-1.2059 0.76159-0.952 0.31733-2.7925 0.44427-1.8405 0.12693-5.0138 0.12693-2.6656 0-4.2522-0.12693-1.5867-0.12694-2.5386-0.44427-0.88853-0.38079-1.2693-0.88852-0.3808-0.5712-0.63466-1.3328l-7.3621-18.342q-1.3328-3.1098-2.6021-5.5216-1.2693-2.4117-2.856-3.9984-1.5232-1.6501-3.5541-2.4752-2.0309-0.82507-4.6965-0.82507h-5.2042v31.289q0 0.63466-0.44426 1.1424-0.3808 0.50773-1.3328 0.82506-0.952 0.31733-2.5387 0.50773t-4.0618 0.1904q-2.4117 0-4.0618-0.1904-1.5867-0.1904-2.5387-0.50773t-1.3328-0.82506q-0.3808-0.50773-0.3808-1.1424v-74.573q0-2.7925 1.3963-3.9984 1.4597-1.2693 3.5541-1.2693h21.261q3.2368 0 5.3312 0.12693 2.0944 0.12693 3.808 0.31733 4.9504 0.69813 8.8853 2.4117 3.9984 1.7136 6.7274 4.5061 2.7925 2.7291 4.2522 6.537 1.4597 3.7445 1.4597 8.6314 0 4.1253-1.0789 7.5525-1.0155 3.3637-3.0464 6.0293-2.0309 2.6656-5.0138 4.633-2.9829 1.9674-6.7909 3.1733 1.8405 0.88853 3.4272 2.1579 1.6501 1.2693 3.0464 3.1098 1.4597 1.777 2.729 4.1253 1.2693 2.2848 2.4752 5.2042l6.9178 16.184q0.95199 2.4117 1.2693 3.5541 0.31733 1.0789 0.31733 1.7136zm-21.515-55.723q0-4.0618-1.8405-6.8544-1.8405-2.7925-6.0293-3.9349-1.2693-0.31733-2.9194-0.50773-1.5867-0.1904-4.4426-0.1904h-7.489v23.292h8.5045q3.5541 0 6.2197-0.82506 2.6656-0.88853 4.4426-2.4117 1.7771-1.5867 2.6656-3.7445 0.88853-2.1579 0.88853-4.8234zm83.204 25.767q0 2.9194-1.3328 4.3157-1.2693 1.3963-3.5541 1.3963h-34.462q0 3.6176 0.82506 6.6005 0.88853 2.9194 2.729 5.0138 1.904 2.0309 4.8234 3.1098 2.9829 1.0789 7.1082 1.0789 4.1888 0 7.3621-0.5712 3.1733-0.63466 5.4581-1.3328 2.3482-0.7616 3.8714-1.3328 1.5232-0.63467 2.4752-0.63467 0.5712 0 0.952 0.25387 0.38079 0.1904 0.63466 0.76159 0.25386 0.5712 0.31733 1.6501 0.12693 1.0155 0.12693 2.6021 0 1.3963-0.0635 2.4117-0.0635 0.95199-0.1904 1.6501-0.12693 0.69813-0.3808 1.2059-0.25386 0.44427-0.69813 0.88853-0.3808 0.44426-2.2213 1.2059t-4.6965 1.5232q-2.856 0.69813-6.537 1.2059-3.681 0.5712-7.8698 0.5712-7.5525 0-13.264-1.904-5.6485-1.904-9.4565-5.7754-3.808-3.8714-5.712-9.7738-1.8405-5.9024-1.8405-13.836 0-7.5525 1.9675-13.582 1.9674-6.0928 5.712-10.282 3.7445-4.2522 9.0757-6.4736 5.3946-2.2213 12.122-2.2213 7.1082 0 12.122 2.0944 5.0773 2.0944 8.3141 5.8389 3.2368 3.681 4.76 8.7584 1.5232 5.0773 1.5232 11.043zm-15.486-4.5696q0.1904-6.7274-2.729-10.535-2.856-3.8714-8.8853-3.8714-3.0464 0-5.3312 1.1424-2.2213 1.1424-3.7445 3.1098-1.4597 1.904-2.2848 4.5696-0.76159 2.6021-0.88852 5.585z" stroke="#000" stroke-linecap="square" stroke-linejoin="round" stroke-width="5.4158" aria-label="Re"/>
  <ellipse cx="128" cy="127.76" rx="116.17" ry="116.24" fill="none" stroke="#000" stroke-dasharray="94.6109, 47.3055, 23.6527, 47.3055" stroke-linecap="round" stroke-linejoin="round" stroke-width="23.653" style="paint-order:normal"/>
</svg>
